<svg xml:space="preserve" style="enable-background:new 0 0 549.8 70.2;" viewBox="0 0 549.8 70.2" y="0px" x="0px" id="Layer_1" version="1.1" xmlns:xlink="http://www.w3.org/1999/xlink" xmlns="http://www.w3.org/2000/svg"><style type="text/css">
	.st0{enable-background:new    ;}
	.st1{fill:#114496;}
	.st2{fill:#FFE063;}
	.st3{fill-rule:evenodd;clip-rule:evenodd;fill:#FFDF57;}
	.st4{fill-rule:evenodd;clip-rule:evenodd;fill:#A10D55;}
	.st5{fill-rule:evenodd;clip-rule:evenodd;fill:#114496;}
</style><g id="Layer_9_00000183971114423598388230000004932051691286781082_"><g class="st0"><path d="M287.4,23.2h0.4l-3,8.4h-1.4l3.5-9.6h1.4l3.5,9.6h-1.4L287.4,23.2z M289.7,28.9h-4.1v-1.2h4.1V28.9z" class="st1"></path><path d="M294.6,31.6c-0.6,0-1.1-0.1-1.5-0.2c-0.4-0.1-0.7-0.3-0.8-0.4l0.2-1.2c0.1,0.1,0.4,0.3,0.8,0.4    c0.4,0.2,0.8,0.2,1.3,0.2c0.4,0,0.8-0.1,1-0.2c0.2-0.1,0.3-0.4,0.3-0.6c0-0.2-0.1-0.4-0.2-0.6c-0.1-0.1-0.3-0.3-0.5-0.3    c-0.2-0.1-0.4-0.2-0.6-0.2c-0.3-0.1-0.6-0.2-1-0.3s-0.6-0.3-0.8-0.6c-0.2-0.3-0.3-0.6-0.3-1.1c0-0.3,0.1-0.7,0.2-1    s0.4-0.6,0.8-0.8c0.4-0.2,0.9-0.3,1.5-0.3c0.5,0,0.8,0,1.1,0.1c0.3,0.1,0.5,0.2,0.7,0.3l-0.2,1.1c-0.2-0.2-0.4-0.3-0.7-0.4    c-0.3-0.1-0.6-0.2-1-0.2c-0.4,0-0.7,0.1-0.9,0.2s-0.4,0.4-0.4,0.7s0.1,0.5,0.4,0.7c0.3,0.1,0.7,0.3,1.2,0.4c0.2,0,0.4,0.1,0.6,0.2    c0.2,0.1,0.4,0.2,0.6,0.4c0.2,0.1,0.4,0.3,0.5,0.6c0.1,0.2,0.2,0.5,0.2,0.9c0,0.3-0.1,0.6-0.2,0.9c-0.1,0.3-0.4,0.6-0.8,0.8    C295.8,31.5,295.3,31.6,294.6,31.6z" class="st1"></path><path d="M300.3,31.6c-0.6,0-1.1-0.1-1.5-0.2c-0.4-0.1-0.7-0.3-0.8-0.4l0.2-1.2c0.1,0.1,0.4,0.3,0.8,0.4    c0.4,0.2,0.8,0.2,1.3,0.2c0.4,0,0.8-0.1,1-0.2c0.2-0.1,0.3-0.4,0.3-0.6c0-0.2-0.1-0.4-0.2-0.6c-0.1-0.1-0.3-0.3-0.5-0.3    c-0.2-0.1-0.4-0.2-0.6-0.2c-0.3-0.1-0.6-0.2-1-0.3s-0.6-0.3-0.8-0.6c-0.2-0.3-0.3-0.6-0.3-1.1c0-0.3,0.1-0.7,0.2-1    s0.4-0.6,0.8-0.8c0.4-0.2,0.9-0.3,1.5-0.3c0.4,0,0.8,0,1.1,0.1c0.3,0.1,0.5,0.2,0.7,0.3l-0.2,1.1c-0.2-0.2-0.4-0.3-0.7-0.4    c-0.3-0.1-0.6-0.2-1-0.2c-0.4,0-0.7,0.1-0.9,0.2s-0.4,0.4-0.4,0.7s0.1,0.5,0.4,0.7c0.3,0.1,0.7,0.3,1.2,0.4c0.2,0,0.4,0.1,0.6,0.2    c0.2,0.1,0.4,0.2,0.6,0.4s0.4,0.3,0.5,0.6c0.1,0.2,0.2,0.5,0.2,0.9c0,0.3-0.1,0.6-0.2,0.9c-0.1,0.3-0.4,0.6-0.8,0.8    C301.5,31.5,301,31.6,300.3,31.6z" class="st1"></path><path d="M307,31.6c-0.7,0-1.3-0.2-1.8-0.5c-0.5-0.3-0.9-0.7-1.1-1.3c-0.3-0.5-0.4-1.1-0.4-1.8s0.1-1.2,0.4-1.8    c0.3-0.5,0.6-1,1.1-1.3s1.1-0.5,1.8-0.5c0.7,0,1.3,0.2,1.8,0.5s0.9,0.7,1.1,1.3c0.3,0.5,0.4,1.1,0.4,1.8s-0.1,1.2-0.4,1.8    c-0.3,0.5-0.6,1-1.1,1.3C308.3,31.5,307.7,31.6,307,31.6z M307,30.5c0.7,0,1.2-0.2,1.5-0.6c0.4-0.4,0.5-1,0.5-1.8    c0-0.8-0.2-1.3-0.5-1.8c-0.4-0.4-0.9-0.6-1.5-0.6c-0.7,0-1.2,0.2-1.5,0.6c-0.4,0.4-0.5,1-0.5,1.8c0,0.8,0.2,1.3,0.5,1.8    C305.8,30.3,306.4,30.5,307,30.5z" class="st1"></path><path d="M314.7,31.6c-0.8,0-1.4-0.2-1.9-0.5c-0.5-0.3-0.9-0.7-1.2-1.3s-0.4-1.1-0.4-1.8c0-0.7,0.1-1.3,0.4-1.8    c0.3-0.5,0.6-1,1.2-1.3c0.5-0.3,1.2-0.5,2-0.5c0.4,0,0.7,0,1,0.1c0.3,0.1,0.6,0.2,0.8,0.3l-0.2,1.1c-0.3-0.1-0.5-0.2-0.8-0.3    c-0.3-0.1-0.6-0.1-0.9-0.1c-0.7,0-1.3,0.2-1.7,0.6c-0.4,0.4-0.6,1-0.6,1.8c0,0.7,0.2,1.3,0.6,1.8c0.4,0.4,0.9,0.7,1.7,0.7    c0.3,0,0.6,0,0.9-0.1c0.3-0.1,0.6-0.2,0.8-0.3l0.2,1c-0.2,0.1-0.5,0.2-0.8,0.4S315.1,31.6,314.7,31.6z" class="st1"></path><path d="M317.9,23.3v-1.4h1.2v1.4H317.9z M317.9,31.5v-6.7h1.2v6.7H317.9z" class="st1"></path><path d="M322.4,31.6c-0.4,0-0.8-0.1-1.1-0.3s-0.6-0.4-0.7-0.7c-0.2-0.3-0.3-0.6-0.3-1c0-0.4,0.1-0.7,0.3-1    c0.2-0.3,0.4-0.5,0.7-0.7c0.3-0.2,0.6-0.3,0.9-0.4c0.3-0.1,0.7-0.2,1.1-0.2c0.4,0,0.7-0.1,1.1-0.1c0-0.6-0.1-1.1-0.4-1.3    c-0.3-0.2-0.6-0.3-1.1-0.3c-0.3,0-0.5,0-0.8,0.1c-0.3,0.1-0.6,0.2-1,0.5l-0.2-1c0.3-0.2,0.6-0.4,1-0.5c0.4-0.1,0.8-0.2,1.3-0.2    c0.6,0,1,0.1,1.4,0.3c0.3,0.2,0.6,0.5,0.8,1c0.2,0.5,0.2,1.1,0.2,1.9v1.4c0,0.3,0,0.6,0,0.8c0,0.2,0.1,0.4,0.2,0.5    c0.1,0.1,0.3,0.2,0.5,0.2h0.1l-0.2,1h-0.1c-0.4,0-0.7,0-0.9-0.1s-0.4-0.2-0.5-0.3s-0.2-0.3-0.3-0.5c-0.3,0.3-0.6,0.5-0.9,0.7    S322.8,31.6,322.4,31.6z M322.6,30.7c0.3,0,0.7-0.1,1-0.2s0.6-0.4,0.8-0.7v-1.6c-0.7,0-1.2,0.1-1.6,0.2s-0.7,0.3-0.9,0.5    c-0.2,0.2-0.3,0.5-0.3,0.8c0,0.4,0.1,0.6,0.3,0.8C322.1,30.6,322.3,30.7,322.6,30.7z" class="st1"></path><path d="M329.6,31.6c-0.4,0-0.8-0.1-1-0.2c-0.3-0.2-0.4-0.4-0.6-0.6s-0.2-0.5-0.2-0.8v-4.3h-1.2l0.1-1h1v-1.7l1.2-0.1    v1.8h1.8v1h-1.8v3.6c0,0.4,0,0.7,0.1,0.9c0.1,0.2,0.2,0.3,0.4,0.4c0.2,0.1,0.5,0.1,1,0.1h0.3l-0.1,1H329.6z" class="st1"></path><path d="M331.9,23.3v-1.4h1.2v1.4H331.9z M331.9,31.5v-6.7h1.2v6.7H331.9z" class="st1"></path><path d="M337.8,31.6c-0.7,0-1.3-0.2-1.8-0.5c-0.5-0.3-0.9-0.7-1.1-1.3c-0.3-0.5-0.4-1.1-0.4-1.8s0.1-1.2,0.4-1.8    c0.3-0.5,0.6-1,1.1-1.3s1.1-0.5,1.8-0.5c0.7,0,1.3,0.2,1.8,0.5s0.9,0.7,1.1,1.3c0.3,0.5,0.4,1.1,0.4,1.8s-0.1,1.2-0.4,1.8    c-0.3,0.5-0.6,1-1.1,1.3C339.1,31.5,338.5,31.6,337.8,31.6z M337.8,30.5c0.7,0,1.2-0.2,1.5-0.6c0.4-0.4,0.5-1,0.5-1.8    c0-0.8-0.2-1.3-0.5-1.8c-0.4-0.4-0.9-0.6-1.5-0.6c-0.7,0-1.2,0.2-1.5,0.6c-0.4,0.4-0.5,1-0.5,1.8c0,0.8,0.2,1.3,0.5,1.8    C336.6,30.3,337.1,30.5,337.8,30.5z" class="st1"></path><path d="M342.4,31.5v-6.7h1l0.2,1.3l-0.5-0.2c0.5-0.5,0.9-0.8,1.3-1c0.4-0.2,0.9-0.2,1.3-0.2c1,0,1.7,0.3,2.1,0.9    c0.4,0.6,0.6,1.3,0.6,2.3v3.7h-1.2v-3.7c0-0.7-0.1-1.2-0.4-1.6c-0.3-0.3-0.7-0.5-1.4-0.5c-0.5,0-0.9,0.1-1.2,0.3    c-0.4,0.2-0.6,0.5-0.7,1l0.2-0.8v5.3H342.4z" class="st1"></path><path d="M353.7,31.5v-5.8h-1.2l0.2-1h1v-1.6c0-0.6,0.2-1.1,0.5-1.4c0.3-0.4,0.8-0.5,1.4-0.5c0.2,0,0.4,0,0.6,0    c0.2,0,0.3,0.1,0.5,0.1l-0.2,1c-0.1,0-0.2-0.1-0.3-0.1s-0.2,0-0.4,0c-0.3,0-0.5,0.1-0.6,0.2c-0.2,0.1-0.2,0.4-0.2,0.7v1.5h1.8v1    h-1.8v5.8H353.7z" class="st1"></path><path d="M360.5,31.6c-0.7,0-1.3-0.2-1.8-0.5c-0.5-0.3-0.9-0.7-1.1-1.3c-0.3-0.5-0.4-1.1-0.4-1.8s0.1-1.2,0.4-1.8    c0.3-0.5,0.6-1,1.1-1.3c0.5-0.3,1.1-0.5,1.8-0.5c0.7,0,1.3,0.2,1.8,0.5s0.9,0.7,1.1,1.3c0.3,0.5,0.4,1.1,0.4,1.8s-0.1,1.2-0.4,1.8    c-0.3,0.5-0.6,1-1.1,1.3C361.9,31.5,361.3,31.6,360.5,31.6z M360.5,30.5c0.7,0,1.2-0.2,1.5-0.6c0.4-0.4,0.5-1,0.5-1.8    c0-0.8-0.2-1.3-0.5-1.8c-0.4-0.4-0.9-0.6-1.5-0.6c-0.7,0-1.2,0.2-1.5,0.6c-0.4,0.4-0.5,1-0.5,1.8c0,0.8,0.2,1.3,0.5,1.8    C359.4,30.3,359.9,30.5,360.5,30.5z" class="st1"></path><path d="M365.2,31.5v-6.7h1l0.2,1.1c0.3-0.4,0.7-0.7,1-0.9s0.7-0.3,1-0.3c0.1,0,0.2,0,0.3,0l-0.1,1.4    c-0.1,0-0.1,0-0.2,0s-0.1,0-0.2,0c-0.4,0-0.7,0.1-1,0.2c-0.3,0.2-0.5,0.3-0.6,0.5v4.8H365.2z" class="st1"></path><path d="M374.9,31.6c-0.4,0-0.8-0.1-1-0.2c-0.3-0.2-0.4-0.4-0.6-0.6s-0.2-0.5-0.2-0.8v-4.3H372l0.1-1h1v-1.7l1.2-0.1    v1.8h1.8v1h-1.8v3.6c0,0.4,0,0.7,0.1,0.9c0.1,0.2,0.2,0.3,0.4,0.4c0.2,0.1,0.5,0.1,1,0.1h0.3l-0.1,1H374.9z" class="st1"></path><path d="M377.2,31.5V21.2h1.3v4.7l-0.4,0c0.3-0.4,0.7-0.7,1-0.9c0.4-0.2,0.8-0.3,1.4-0.3c0.6,0,1.1,0.1,1.5,0.4    c0.4,0.3,0.7,0.6,0.9,1.1c0.2,0.5,0.3,1,0.3,1.6v3.8h-1.2v-3.6c0-0.7-0.1-1.3-0.4-1.6c-0.3-0.4-0.7-0.5-1.3-0.5    c-0.4,0-0.8,0.1-1.1,0.3s-0.6,0.5-0.8,0.9l0.2-0.8v5.3H377.2z" class="st1"></path><path d="M387.9,31.6c-0.8,0-1.5-0.2-2-0.5c-0.5-0.3-1-0.8-1.2-1.3s-0.4-1.1-0.4-1.8c0-0.6,0.1-1.2,0.4-1.7    c0.3-0.5,0.6-0.9,1.1-1.3s1.1-0.5,1.8-0.5c0.6,0,1.1,0.1,1.5,0.3s0.8,0.5,1,1c0.2,0.4,0.4,0.9,0.4,1.5c0,0.1,0,0.2,0,0.3    s0,0.2,0,0.3h-4.9c0.1,0.6,0.2,1.1,0.4,1.5s0.5,0.6,0.9,0.7c0.4,0.1,0.8,0.2,1.2,0.2c0.3,0,0.6,0,1-0.1c0.3-0.1,0.7-0.2,1-0.3    l0.2,1c-0.3,0.1-0.6,0.2-1,0.3C388.9,31.6,388.4,31.6,387.9,31.6z M385.7,27.3h3.5c0-0.3-0.1-0.6-0.2-0.8    c-0.1-0.2-0.3-0.4-0.5-0.5c-0.2-0.1-0.6-0.2-0.9-0.2c-0.5,0-1,0.1-1.3,0.4C386,26.4,385.8,26.8,385.7,27.3z" class="st1"></path><path d="M398.1,23.2h0.4l-3,8.4h-1.4l3.5-9.6h1.4l3.5,9.6H401L398.1,23.2z M400.3,28.9h-4.1v-1.2h4.1V28.9z" class="st1"></path><path d="M406.3,31.6c-0.8,0-1.4-0.2-1.9-0.5c-0.5-0.3-0.9-0.7-1.2-1.3s-0.4-1.1-0.4-1.8c0-0.7,0.1-1.3,0.4-1.8    c0.3-0.5,0.6-1,1.2-1.3c0.5-0.3,1.2-0.5,2-0.5c0.4,0,0.7,0,1,0.1c0.3,0.1,0.6,0.2,0.8,0.3l-0.2,1.1c-0.3-0.1-0.5-0.2-0.8-0.3    c-0.3-0.1-0.6-0.1-0.9-0.1c-0.7,0-1.3,0.2-1.7,0.6c-0.4,0.4-0.6,1-0.6,1.8c0,0.7,0.2,1.3,0.6,1.8c0.4,0.4,0.9,0.7,1.7,0.7    c0.3,0,0.6,0,0.9-0.1c0.3-0.1,0.6-0.2,0.8-0.3l0.2,1c-0.2,0.1-0.5,0.2-0.8,0.4S406.7,31.6,406.3,31.6z" class="st1"></path><path d="M412.4,31.6c-0.8,0-1.4-0.2-1.9-0.5c-0.5-0.3-0.9-0.7-1.2-1.3s-0.4-1.1-0.4-1.8c0-0.7,0.1-1.3,0.4-1.8    c0.3-0.5,0.6-1,1.2-1.3c0.5-0.3,1.2-0.5,2-0.5c0.4,0,0.7,0,1,0.1c0.3,0.1,0.6,0.2,0.8,0.3l-0.2,1.1c-0.3-0.1-0.5-0.2-0.8-0.3    c-0.3-0.1-0.6-0.1-0.9-0.1c-0.7,0-1.3,0.2-1.7,0.6s-0.6,1-0.6,1.8c0,0.7,0.2,1.3,0.6,1.8c0.4,0.4,0.9,0.7,1.7,0.7    c0.3,0,0.6,0,0.9-0.1c0.3-0.1,0.6-0.2,0.8-0.3l0.2,1c-0.2,0.1-0.5,0.2-0.8,0.4C413.2,31.6,412.8,31.6,412.4,31.6z" class="st1"></path><path d="M415.6,31.5v-6.7h1l0.2,1.1c0.3-0.4,0.7-0.7,1-0.9c0.3-0.2,0.7-0.3,1-0.3c0.1,0,0.2,0,0.3,0l-0.1,1.4    c-0.1,0-0.1,0-0.2,0s-0.1,0-0.2,0c-0.4,0-0.7,0.1-1,0.2c-0.3,0.2-0.5,0.3-0.6,0.5v4.8H415.6z" class="st1"></path><path d="M423,31.6c-0.8,0-1.5-0.2-2-0.5c-0.5-0.3-1-0.8-1.2-1.3s-0.4-1.1-0.4-1.8c0-0.6,0.1-1.2,0.4-1.7    c0.3-0.5,0.6-0.9,1.1-1.3s1.1-0.5,1.8-0.5c0.6,0,1.1,0.1,1.5,0.3s0.8,0.5,1,1c0.2,0.4,0.4,0.9,0.4,1.5c0,0.1,0,0.2,0,0.3    s0,0.2,0,0.3h-4.9c0.1,0.6,0.2,1.1,0.4,1.5s0.5,0.6,0.9,0.7c0.4,0.1,0.8,0.2,1.2,0.2c0.3,0,0.6,0,1-0.1c0.3-0.1,0.7-0.2,1-0.3    l0.2,1c-0.3,0.1-0.6,0.2-1,0.3C423.9,31.6,423.5,31.6,423,31.6z M420.7,27.3h3.5c0-0.3-0.1-0.6-0.2-0.8c-0.1-0.2-0.3-0.4-0.5-0.5    c-0.2-0.1-0.6-0.2-0.9-0.2c-0.5,0-1,0.1-1.3,0.4C421,26.4,420.8,26.8,420.7,27.3z" class="st1"></path><path d="M429.5,31.6c-0.6,0-1.1-0.2-1.6-0.5c-0.5-0.3-0.8-0.7-1.1-1.3c-0.3-0.5-0.4-1.1-0.4-1.8    c0-0.6,0.1-1.2,0.4-1.7c0.2-0.5,0.6-1,1.1-1.3c0.5-0.3,1-0.5,1.6-0.5c0.4,0,0.9,0.1,1.3,0.3c0.4,0.2,0.8,0.5,1,1l-0.3,0.2v-4.9    h1.2v10.3h-1.1l-0.2-1.4l0.3,0.2c-0.2,0.4-0.5,0.8-0.9,1C430.4,31.5,429.9,31.6,429.5,31.6z M429.7,30.5c0.3,0,0.6-0.1,0.9-0.2    c0.3-0.2,0.6-0.4,0.8-0.8c0.2-0.4,0.3-0.8,0.3-1.4c0-0.5-0.1-1-0.3-1.3c-0.2-0.4-0.5-0.6-0.8-0.8c-0.3-0.2-0.6-0.3-0.9-0.3    c-0.4,0-0.8,0.1-1.1,0.3s-0.5,0.5-0.7,0.9c-0.2,0.4-0.2,0.8-0.2,1.2c0,0.4,0.1,0.8,0.2,1.2c0.2,0.4,0.4,0.7,0.7,0.9    S429.3,30.5,429.7,30.5z" class="st1"></path><path d="M434.4,23.3v-1.4h1.2v1.4H434.4z M434.4,31.5v-6.7h1.2v6.7H434.4z" class="st1"></path><path d="M439.7,31.6c-0.4,0-0.8-0.1-1-0.2c-0.3-0.2-0.4-0.4-0.6-0.6s-0.2-0.5-0.2-0.8v-4.3h-1.2l0.1-1h1v-1.7l1.2-0.1    v1.8h1.8v1h-1.8v3.6c0,0.4,0,0.7,0.1,0.9c0,0.2,0.2,0.3,0.4,0.4s0.5,0.1,1,0.1h0.3l-0.1,1H439.7z" class="st1"></path><path d="M443.6,31.6c-0.4,0-0.8-0.1-1.1-0.3c-0.3-0.2-0.6-0.4-0.7-0.7c-0.2-0.3-0.3-0.6-0.3-1c0-0.4,0.1-0.7,0.3-1    c0.2-0.3,0.4-0.5,0.7-0.7c0.3-0.2,0.6-0.3,0.9-0.4c0.3-0.1,0.7-0.2,1.1-0.2s0.7-0.1,1.1-0.1c0-0.6-0.1-1.1-0.4-1.3    c-0.3-0.2-0.6-0.3-1.1-0.3c-0.3,0-0.5,0-0.8,0.1c-0.3,0.1-0.6,0.2-1,0.5l-0.2-1c0.3-0.2,0.6-0.4,1-0.5c0.4-0.1,0.8-0.2,1.3-0.2    c0.6,0,1,0.1,1.4,0.3c0.3,0.2,0.6,0.5,0.8,1c0.2,0.5,0.2,1.1,0.2,1.9v1.4c0,0.3,0,0.6,0,0.8c0,0.2,0.1,0.4,0.2,0.5    c0.1,0.1,0.3,0.2,0.5,0.2h0.1l-0.2,1h-0.1c-0.4,0-0.7,0-0.9-0.1s-0.4-0.2-0.5-0.3c-0.1-0.1-0.2-0.3-0.3-0.5    c-0.3,0.3-0.6,0.5-0.9,0.7C444.4,31.6,444,31.6,443.6,31.6z M443.8,30.7c0.3,0,0.7-0.1,1-0.2s0.6-0.4,0.8-0.7v-1.6    c-0.7,0-1.2,0.1-1.6,0.2c-0.4,0.1-0.7,0.3-0.9,0.5c-0.2,0.2-0.3,0.5-0.3,0.8c0,0.4,0.1,0.6,0.3,0.8    C443.2,30.6,443.5,30.7,443.8,30.7z" class="st1"></path><path d="M450.8,31.6c-0.4,0-0.8-0.1-1-0.2c-0.3-0.2-0.4-0.4-0.6-0.6S449,30.3,449,30v-4.3h-1.2l0.1-1h1v-1.7l1.2-0.1    v1.8h1.8v1h-1.8v3.6c0,0.4,0,0.7,0.1,0.9c0,0.2,0.2,0.3,0.4,0.4s0.5,0.1,1,0.1h0.3l-0.1,1H450.8z" class="st1"></path><path d="M453.1,23.3v-1.4h1.2v1.4H453.1z M453.1,31.5v-6.7h1.2v6.7H453.1z" class="st1"></path><path d="M459,31.6c-0.7,0-1.3-0.2-1.8-0.5c-0.5-0.3-0.9-0.7-1.1-1.3c-0.3-0.5-0.4-1.1-0.4-1.8s0.1-1.2,0.4-1.8    c0.3-0.5,0.6-1,1.1-1.3c0.5-0.3,1.1-0.5,1.8-0.5c0.7,0,1.3,0.2,1.8,0.5s0.9,0.7,1.1,1.3c0.3,0.5,0.4,1.1,0.4,1.8s-0.1,1.2-0.4,1.8    c-0.3,0.5-0.6,1-1.1,1.3C460.3,31.5,459.7,31.6,459,31.6z M459,30.5c0.7,0,1.2-0.2,1.5-0.6c0.4-0.4,0.5-1,0.5-1.8    c0-0.8-0.2-1.3-0.5-1.8c-0.4-0.4-0.9-0.6-1.5-0.6c-0.7,0-1.2,0.2-1.5,0.6c-0.4,0.4-0.5,1-0.5,1.8c0,0.8,0.2,1.3,0.5,1.8    C457.8,30.3,458.3,30.5,459,30.5z" class="st1"></path><path d="M463.6,31.5v-6.7h1l0.2,1.3l-0.5-0.2c0.5-0.5,0.9-0.8,1.3-1c0.4-0.2,0.9-0.2,1.3-0.2c1,0,1.7,0.3,2.1,0.9    c0.4,0.6,0.6,1.3,0.6,2.3v3.7h-1.2v-3.7c0-0.7-0.1-1.2-0.4-1.6c-0.3-0.3-0.7-0.5-1.4-0.5c-0.5,0-0.9,0.1-1.2,0.3    c-0.4,0.2-0.6,0.5-0.7,1l0.2-0.8v5.3H463.6z" class="st1"></path></g><g class="st0"><path d="M287.1,46.3c-0.7,0-1.3-0.2-1.8-0.5c-0.5-0.3-0.9-0.7-1.1-1.3c-0.3-0.5-0.4-1.1-0.4-1.8s0.1-1.2,0.4-1.8    c0.3-0.5,0.6-1,1.1-1.3s1.1-0.5,1.8-0.5c0.7,0,1.3,0.2,1.8,0.5s0.9,0.7,1.1,1.3c0.3,0.5,0.4,1.1,0.4,1.8s-0.1,1.2-0.4,1.8    c-0.3,0.5-0.6,1-1.1,1.3C288.4,46.2,287.8,46.3,287.1,46.3z M287.1,45.2c0.7,0,1.2-0.2,1.5-0.6c0.4-0.4,0.5-1,0.5-1.8    c0-0.8-0.2-1.3-0.5-1.8c-0.4-0.4-0.9-0.6-1.5-0.6c-0.7,0-1.2,0.2-1.5,0.6c-0.4,0.4-0.5,1-0.5,1.8c0,0.8,0.2,1.3,0.5,1.8    C286,45,286.5,45.2,287.1,45.2z" class="st1"></path><path d="M292.2,46.2v-5.8H291l0.2-1h1v-1.6c0-0.6,0.2-1.1,0.5-1.4c0.3-0.4,0.8-0.5,1.4-0.5c0.2,0,0.4,0,0.6,0    c0.2,0,0.3,0.1,0.5,0.1l-0.2,1c-0.1,0-0.2-0.1-0.3-0.1s-0.2,0-0.4,0c-0.3,0-0.5,0.1-0.6,0.2c-0.2,0.1-0.2,0.4-0.2,0.7v1.5h1.8v1    h-1.8v5.8H292.2z" class="st1"></path><path d="M299.6,46.2v-9.6h1.3v4h4.9v-4h1.3v9.6h-1.3v-4.4h-4.9v4.4H299.6z" class="st1"></path><path d="M311.3,46.3c-0.5,0-1-0.1-1.3-0.3c-0.4-0.2-0.7-0.5-0.8-1c-0.2-0.4-0.3-1-0.3-1.7v-3.9h1.2V43    c0,0.7,0.1,1.3,0.4,1.6s0.6,0.6,1.2,0.6c0.4,0,0.7-0.1,1.1-0.3c0.3-0.2,0.5-0.5,0.7-0.9l-0.2,0.7v-5.3h1.2v6.7h-1.1l-0.2-1.3    l0.3,0.2c-0.2,0.4-0.5,0.7-0.8,0.9C312.3,46.2,311.9,46.3,311.3,46.3z" class="st1"></path><path d="M316.1,46.2v-6.7h1l0.2,1.3l-0.5-0.2c0.4-0.5,0.8-0.8,1.2-0.9c0.4-0.2,0.8-0.3,1.3-0.3c0.3,0,0.6,0.1,1,0.2    c0.3,0.1,0.6,0.3,0.8,0.6c0.2,0.3,0.4,0.6,0.6,1.1l-0.3-0.2c0.2-0.5,0.5-0.9,0.9-1.2c0.4-0.3,1-0.5,1.7-0.5c0.6,0,1,0.1,1.4,0.3    c0.4,0.2,0.7,0.5,0.9,1c0.2,0.4,0.3,1,0.3,1.6v4h-1.2v-4c0-0.6-0.1-1.1-0.4-1.4c-0.2-0.3-0.7-0.4-1.2-0.4c-0.4,0-0.7,0.1-0.9,0.2    c-0.2,0.1-0.4,0.3-0.5,0.5c-0.1,0.2-0.2,0.4-0.2,0.6s-0.1,0.4-0.1,0.6v3.9h-1.2v-3.7c0-0.5-0.1-1-0.2-1.3    c-0.1-0.3-0.3-0.5-0.6-0.6c-0.2-0.1-0.5-0.2-0.8-0.2c-0.5,0-0.9,0.1-1.2,0.3c-0.4,0.2-0.6,0.5-0.7,1l0.2-0.7v5.2H316.1z" class="st1"></path><path d="M329.8,46.3c-0.4,0-0.8-0.1-1.1-0.3c-0.3-0.2-0.6-0.4-0.7-0.7c-0.2-0.3-0.3-0.6-0.3-1c0-0.4,0.1-0.7,0.3-1    c0.2-0.3,0.4-0.5,0.7-0.7c0.3-0.2,0.6-0.3,0.9-0.4c0.3-0.1,0.7-0.2,1.1-0.2s0.7-0.1,1.1-0.1c0-0.6-0.1-1.1-0.4-1.3    c-0.3-0.2-0.6-0.3-1.1-0.3c-0.3,0-0.5,0-0.8,0.1c-0.3,0.1-0.6,0.2-1,0.5l-0.2-1c0.3-0.2,0.6-0.4,1-0.5c0.4-0.1,0.8-0.2,1.3-0.2    c0.6,0,1,0.1,1.4,0.3c0.3,0.2,0.6,0.5,0.8,1c0.2,0.5,0.2,1.1,0.2,1.9v1.4c0,0.3,0,0.6,0,0.8c0,0.2,0.1,0.4,0.2,0.5    c0.1,0.1,0.3,0.2,0.5,0.2h0.1l-0.2,1h-0.1c-0.4,0-0.7,0-0.9-0.1s-0.4-0.2-0.5-0.3c-0.1-0.1-0.2-0.3-0.3-0.5    c-0.3,0.3-0.6,0.5-0.9,0.7C330.6,46.3,330.2,46.3,329.8,46.3z M330,45.4c0.3,0,0.7-0.1,1-0.2s0.6-0.4,0.8-0.7v-1.6    c-0.7,0-1.2,0.1-1.6,0.2c-0.4,0.1-0.7,0.3-0.9,0.5c-0.2,0.2-0.3,0.5-0.3,0.8c0,0.4,0.1,0.6,0.3,0.8    C329.4,45.3,329.7,45.4,330,45.4z" class="st1"></path><path d="M334.8,46.2v-6.7h1l0.2,1.3l-0.5-0.2c0.5-0.5,0.9-0.8,1.3-1c0.4-0.2,0.9-0.2,1.3-0.2c1,0,1.7,0.3,2.1,0.9    c0.4,0.6,0.6,1.3,0.6,2.3v3.7h-1.2v-3.7c0-0.7-0.1-1.2-0.4-1.6c-0.3-0.3-0.7-0.5-1.4-0.5c-0.5,0-0.9,0.1-1.2,0.3    c-0.4,0.2-0.6,0.5-0.7,1l0.2-0.8v5.3H334.8z" class="st1"></path><path d="M345.9,46.2v-9.6h3.1c0.7,0,1.3,0.1,1.8,0.3s0.9,0.5,1.2,1c0.3,0.4,0.4,1,0.4,1.7c0,0.7-0.1,1.2-0.4,1.7    c-0.3,0.4-0.7,0.8-1.2,1.1l2.2,4h-1.6l-2-3.8c0,0,0,0,0,0c0,0,0,0,0,0h-1.9v3.8H345.9z M347.2,41.3h1.7c0.7,0,1.2-0.2,1.5-0.5    c0.3-0.3,0.5-0.8,0.5-1.3c0-0.6-0.2-1-0.5-1.3c-0.3-0.3-0.8-0.5-1.5-0.5h-1.7V41.3z" class="st1"></path><path d="M356.9,46.3c-0.8,0-1.5-0.2-2-0.5c-0.5-0.3-1-0.8-1.2-1.3c-0.3-0.5-0.4-1.1-0.4-1.8c0-0.6,0.1-1.2,0.4-1.7    c0.3-0.5,0.6-0.9,1.1-1.3s1.1-0.5,1.8-0.5c0.6,0,1.1,0.1,1.5,0.3c0.4,0.2,0.8,0.5,1,1c0.2,0.4,0.4,0.9,0.4,1.5c0,0.1,0,0.2,0,0.3    s0,0.2,0,0.3h-4.9c0.1,0.6,0.2,1.1,0.4,1.5c0.2,0.3,0.5,0.6,0.9,0.7c0.4,0.1,0.8,0.2,1.2,0.2c0.3,0,0.6,0,1-0.1    c0.3-0.1,0.7-0.2,1-0.3l0.2,1c-0.3,0.1-0.6,0.2-1,0.3S357.4,46.3,356.9,46.3z M354.6,42h3.6c0-0.3-0.1-0.6-0.2-0.8    c-0.1-0.2-0.3-0.4-0.5-0.5c-0.2-0.1-0.6-0.2-0.9-0.2c-0.6,0-1,0.1-1.3,0.4C354.9,41.1,354.7,41.5,354.6,42z" class="st1"></path><path d="M362.6,46.3c-0.6,0-1.1-0.1-1.5-0.2c-0.4-0.1-0.7-0.3-0.8-0.4l0.2-1.2c0.1,0.1,0.4,0.3,0.8,0.4    c0.4,0.2,0.8,0.2,1.3,0.2c0.4,0,0.8-0.1,1-0.2c0.2-0.1,0.3-0.4,0.3-0.6c0-0.2-0.1-0.4-0.2-0.6c-0.1-0.1-0.3-0.3-0.5-0.3    c-0.2-0.1-0.4-0.2-0.6-0.2c-0.3-0.1-0.6-0.2-1-0.3s-0.6-0.3-0.8-0.6c-0.2-0.3-0.3-0.6-0.3-1.1c0-0.3,0.1-0.7,0.2-1    s0.4-0.6,0.8-0.8c0.4-0.2,0.9-0.3,1.5-0.3c0.5,0,0.8,0,1.1,0.1c0.3,0.1,0.5,0.2,0.7,0.3l-0.2,1.1c-0.2-0.2-0.4-0.3-0.7-0.4    c-0.3-0.1-0.6-0.2-1-0.2c-0.4,0-0.7,0.1-0.9,0.2s-0.4,0.4-0.4,0.7s0.1,0.5,0.4,0.7c0.3,0.1,0.7,0.3,1.2,0.4c0.2,0,0.4,0.1,0.6,0.2    c0.2,0.1,0.4,0.2,0.6,0.4c0.2,0.1,0.4,0.3,0.5,0.6c0.1,0.2,0.2,0.5,0.2,0.9c0,0.3-0.1,0.6-0.2,0.9c-0.1,0.3-0.4,0.6-0.8,0.8    C363.8,46.2,363.3,46.3,362.6,46.3z" class="st1"></path><path d="M369.6,46.3c-0.8,0-1.5-0.2-2-0.5c-0.5-0.3-1-0.8-1.2-1.3s-0.4-1.1-0.4-1.8c0-0.6,0.1-1.2,0.4-1.7    c0.3-0.5,0.6-0.9,1.1-1.3s1.1-0.5,1.8-0.5c0.6,0,1.1,0.1,1.5,0.3s0.8,0.5,1,1c0.2,0.4,0.4,0.9,0.4,1.5c0,0.1,0,0.2,0,0.3    s0,0.2,0,0.3h-4.9c0.1,0.6,0.2,1.1,0.4,1.5s0.5,0.6,0.9,0.7c0.4,0.1,0.8,0.2,1.2,0.2c0.3,0,0.6,0,1-0.1c0.3-0.1,0.7-0.2,1-0.3    l0.2,1c-0.3,0.1-0.6,0.2-1,0.3C370.5,46.3,370.1,46.3,369.6,46.3z M367.3,42h3.5c0-0.3-0.1-0.6-0.2-0.8c-0.1-0.2-0.3-0.4-0.5-0.5    c-0.2-0.1-0.6-0.2-0.9-0.2c-0.5,0-1,0.1-1.3,0.4C367.7,41.1,367.5,41.5,367.3,42z" class="st1"></path><path d="M375,46.3c-0.4,0-0.8-0.1-1.1-0.3s-0.6-0.4-0.7-0.7c-0.2-0.3-0.3-0.6-0.3-1c0-0.4,0.1-0.7,0.3-1    c0.2-0.3,0.4-0.5,0.7-0.7c0.3-0.2,0.6-0.3,0.9-0.4c0.3-0.1,0.7-0.2,1.1-0.2c0.4,0,0.7-0.1,1.1-0.1c0-0.6-0.1-1.1-0.4-1.3    c-0.3-0.2-0.6-0.3-1.1-0.3c-0.3,0-0.5,0-0.8,0.1c-0.3,0.1-0.6,0.2-1,0.5l-0.2-1c0.3-0.2,0.6-0.4,1-0.5c0.4-0.1,0.8-0.2,1.3-0.2    c0.6,0,1,0.1,1.4,0.3c0.3,0.2,0.6,0.5,0.8,1c0.2,0.5,0.2,1.1,0.2,1.9v1.4c0,0.3,0,0.6,0,0.8c0,0.2,0.1,0.4,0.2,0.5    c0.1,0.1,0.3,0.2,0.5,0.2h0.1l-0.2,1h-0.1c-0.4,0-0.7,0-0.9-0.1s-0.4-0.2-0.5-0.3s-0.2-0.3-0.3-0.5c-0.3,0.3-0.6,0.5-0.9,0.7    S375.4,46.3,375,46.3z M375.2,45.4c0.3,0,0.7-0.1,1-0.2s0.6-0.4,0.8-0.7v-1.6c-0.7,0-1.2,0.1-1.6,0.2s-0.7,0.3-0.9,0.5    c-0.2,0.2-0.3,0.5-0.3,0.8c0,0.4,0.1,0.6,0.3,0.8C374.7,45.3,374.9,45.4,375.2,45.4z" class="st1"></path><path d="M380,46.2v-6.7h1l0.2,1.1c0.3-0.4,0.7-0.7,1-0.9c0.3-0.2,0.7-0.3,1-0.3c0.1,0,0.2,0,0.3,0l-0.1,1.4    c-0.1,0-0.1,0-0.2,0s-0.1,0-0.2,0c-0.4,0-0.7,0.1-1,0.2c-0.3,0.2-0.5,0.3-0.6,0.5v4.8H380z" class="st1"></path><path d="M387.3,46.3c-0.8,0-1.4-0.2-1.9-0.5c-0.5-0.3-0.9-0.7-1.2-1.3s-0.4-1.1-0.4-1.8c0-0.7,0.1-1.3,0.4-1.8    c0.3-0.5,0.6-1,1.2-1.3c0.5-0.3,1.2-0.5,2-0.5c0.4,0,0.7,0,1,0.1c0.3,0.1,0.6,0.2,0.8,0.3l-0.2,1.1c-0.3-0.1-0.5-0.2-0.8-0.3    c-0.3-0.1-0.6-0.1-0.9-0.1c-0.7,0-1.3,0.2-1.7,0.6c-0.4,0.4-0.6,1-0.6,1.8c0,0.7,0.2,1.3,0.6,1.8c0.4,0.4,0.9,0.7,1.7,0.7    c0.3,0,0.6,0,0.9-0.1c0.3-0.1,0.6-0.2,0.8-0.3l0.2,1c-0.2,0.1-0.5,0.2-0.8,0.4S387.7,46.3,387.3,46.3z" class="st1"></path><path d="M390.4,46.2V35.9h1.3v4.7l-0.4,0c0.3-0.4,0.7-0.7,1-0.9c0.4-0.2,0.8-0.3,1.4-0.3c0.6,0,1.1,0.1,1.5,0.4    c0.4,0.3,0.7,0.6,0.9,1.1c0.2,0.5,0.3,1,0.3,1.6v3.8H395v-3.6c0-0.7-0.1-1.3-0.4-1.6c-0.3-0.4-0.7-0.5-1.3-0.5    c-0.4,0-0.8,0.1-1.1,0.3s-0.6,0.5-0.8,0.9l0.2-0.8v5.3H390.4z" class="st1"></path><path d="M401.3,46.2v-9.6h3.2c0.6,0,1.2,0.1,1.7,0.3c0.5,0.2,0.9,0.5,1.1,1c0.3,0.5,0.4,1.1,0.4,1.8    c0,0.7-0.1,1.3-0.4,1.8c-0.3,0.5-0.7,0.8-1.1,1c-0.5,0.2-1.1,0.3-1.7,0.3h-1.8v3.4H401.3z M402.6,41.7h1.6c0.7,0,1.2-0.2,1.6-0.5    c0.4-0.3,0.5-0.8,0.5-1.5c0-0.7-0.2-1.2-0.5-1.5c-0.3-0.3-0.9-0.5-1.6-0.5h-1.6V41.7z" class="st1"></path><path d="M408.8,46.2v-6.7h1l0.2,1.1c0.3-0.4,0.7-0.7,1-0.9c0.3-0.2,0.7-0.3,1-0.3c0.1,0,0.2,0,0.3,0l-0.1,1.4    c-0.1,0-0.1,0-0.2,0s-0.1,0-0.2,0c-0.4,0-0.7,0.1-1,0.2c-0.3,0.2-0.5,0.3-0.6,0.5v4.8H408.8z" class="st1"></path><path d="M415.9,46.3c-0.7,0-1.3-0.2-1.8-0.5c-0.5-0.3-0.9-0.7-1.1-1.3c-0.3-0.5-0.4-1.1-0.4-1.8s0.1-1.2,0.4-1.8    c0.3-0.5,0.6-1,1.1-1.3s1.1-0.5,1.8-0.5c0.7,0,1.3,0.2,1.8,0.5s0.9,0.7,1.1,1.3c0.3,0.5,0.4,1.1,0.4,1.8s-0.1,1.2-0.4,1.8    c-0.3,0.5-0.6,1-1.1,1.3C417.2,46.2,416.6,46.3,415.9,46.3z M415.9,45.2c0.7,0,1.2-0.2,1.5-0.6c0.4-0.4,0.5-1,0.5-1.8    c0-0.8-0.2-1.3-0.5-1.8c-0.4-0.4-0.9-0.6-1.5-0.6c-0.7,0-1.2,0.2-1.5,0.6c-0.4,0.4-0.5,1-0.5,1.8c0,0.8,0.2,1.3,0.5,1.8    C414.7,45,415.2,45.2,415.9,45.2z" class="st1"></path><path d="M422.7,46.3c-0.4,0-0.8-0.1-1-0.2c-0.3-0.2-0.4-0.4-0.6-0.6S421,45,421,44.7v-4.3h-1.2l0.1-1h1v-1.7l1.2-0.1    v1.8h1.8v1h-1.8V44c0,0.4,0,0.7,0.1,0.9c0.1,0.2,0.2,0.3,0.4,0.4c0.2,0.1,0.5,0.1,1,0.1h0.3l-0.1,1H422.7z" class="st1"></path><path d="M428.2,46.3c-0.8,0-1.5-0.2-2-0.5c-0.5-0.3-1-0.8-1.2-1.3s-0.4-1.1-0.4-1.8c0-0.6,0.1-1.2,0.4-1.7    c0.3-0.5,0.6-0.9,1.1-1.3s1.1-0.5,1.8-0.5c0.6,0,1.1,0.1,1.5,0.3s0.8,0.5,1,1c0.2,0.4,0.4,0.9,0.4,1.5c0,0.1,0,0.2,0,0.3    s0,0.2,0,0.3h-4.9c0.1,0.6,0.2,1.1,0.4,1.5s0.5,0.6,0.9,0.7c0.4,0.1,0.8,0.2,1.2,0.2c0.3,0,0.6,0,1-0.1c0.3-0.1,0.7-0.2,1-0.3    l0.2,1c-0.3,0.1-0.6,0.2-1,0.3C429.1,46.3,428.7,46.3,428.2,46.3z M425.9,42h3.5c0-0.3-0.1-0.6-0.2-0.8c-0.1-0.2-0.3-0.4-0.5-0.5    c-0.2-0.1-0.6-0.2-0.9-0.2c-0.5,0-1,0.1-1.3,0.4C426.3,41.1,426.1,41.5,425.9,42z" class="st1"></path><path d="M435.1,46.3c-0.8,0-1.4-0.2-1.9-0.5c-0.5-0.3-0.9-0.7-1.2-1.3s-0.4-1.1-0.4-1.8c0-0.7,0.1-1.3,0.4-1.8    c0.3-0.5,0.6-1,1.2-1.3c0.5-0.3,1.2-0.5,2-0.5c0.4,0,0.7,0,1,0.1c0.3,0.1,0.6,0.2,0.8,0.3l-0.2,1.1c-0.3-0.1-0.5-0.2-0.8-0.3    c-0.3-0.1-0.6-0.1-0.9-0.1c-0.7,0-1.3,0.2-1.7,0.6c-0.4,0.4-0.6,1-0.6,1.8c0,0.7,0.2,1.3,0.6,1.8c0.4,0.4,0.9,0.7,1.7,0.7    c0.3,0,0.6,0,0.9-0.1c0.3-0.1,0.6-0.2,0.8-0.3l0.2,1c-0.2,0.1-0.5,0.2-0.8,0.4S435.5,46.3,435.1,46.3z" class="st1"></path><path d="M440.6,46.3c-0.4,0-0.8-0.1-1-0.2c-0.3-0.2-0.4-0.4-0.6-0.6s-0.2-0.5-0.2-0.8v-4.3h-1.2l0.1-1h1v-1.7l1.2-0.1    v1.8h1.8v1h-1.8V44c0,0.4,0,0.7,0.1,0.9c0,0.2,0.2,0.3,0.4,0.4s0.5,0.1,1,0.1h0.3l-0.1,1H440.6z" class="st1"></path><path d="M442.9,38v-1.4h1.2V38H442.9z M442.9,46.2v-6.7h1.2v6.7H442.9z" class="st1"></path><path d="M448.8,46.3c-0.7,0-1.3-0.2-1.8-0.5c-0.5-0.3-0.9-0.7-1.1-1.3c-0.3-0.5-0.4-1.1-0.4-1.8s0.1-1.2,0.4-1.8    c0.3-0.5,0.6-1,1.1-1.3c0.5-0.3,1.1-0.5,1.8-0.5c0.7,0,1.3,0.2,1.8,0.5s0.9,0.7,1.1,1.3c0.3,0.5,0.4,1.1,0.4,1.8s-0.1,1.2-0.4,1.8    c-0.3,0.5-0.6,1-1.1,1.3C450.1,46.2,449.5,46.3,448.8,46.3z M448.8,45.2c0.7,0,1.2-0.2,1.5-0.6c0.4-0.4,0.5-1,0.5-1.8    c0-0.8-0.2-1.3-0.5-1.8c-0.4-0.4-0.9-0.6-1.5-0.6c-0.7,0-1.2,0.2-1.5,0.6c-0.4,0.4-0.5,1-0.5,1.8c0,0.8,0.2,1.3,0.5,1.8    C447.6,45,448.1,45.2,448.8,45.2z" class="st1"></path><path d="M453.4,46.2v-6.7h1l0.2,1.3l-0.5-0.2c0.5-0.5,0.9-0.8,1.3-1c0.4-0.2,0.9-0.2,1.3-0.2c1,0,1.7,0.3,2.1,0.9    c0.4,0.6,0.6,1.3,0.6,2.3v3.7h-1.2v-3.7c0-0.7-0.1-1.2-0.4-1.6c-0.3-0.3-0.7-0.5-1.4-0.5c-0.5,0-0.9,0.1-1.2,0.3    c-0.4,0.2-0.6,0.5-0.7,1l0.2-0.8v5.3H453.4z" class="st1"></path><path d="M464.4,46.2v-9.6h3.2c0.6,0,1.2,0.1,1.7,0.3c0.5,0.2,0.9,0.5,1.1,1c0.3,0.5,0.4,1.1,0.4,1.8    c0,0.7-0.1,1.3-0.4,1.8c-0.3,0.5-0.7,0.8-1.1,1c-0.5,0.2-1.1,0.3-1.7,0.3h-1.8v3.4H464.4z M465.8,41.7h1.6c0.7,0,1.2-0.2,1.6-0.5    c0.4-0.3,0.5-0.8,0.5-1.5c0-0.7-0.2-1.2-0.5-1.5c-0.3-0.3-0.9-0.5-1.6-0.5h-1.6V41.7z" class="st1"></path><path d="M471.9,46.2v-6.7h1l0.2,1.1c0.3-0.4,0.7-0.7,1-0.9c0.3-0.2,0.7-0.3,1-0.3c0.1,0,0.2,0,0.3,0l-0.1,1.4    c-0.1,0-0.1,0-0.2,0s-0.1,0-0.2,0c-0.4,0-0.7,0.1-1,0.2c-0.3,0.2-0.5,0.3-0.6,0.5v4.8H471.9z" class="st1"></path><path d="M479.1,46.3c-0.7,0-1.3-0.2-1.8-0.5c-0.5-0.3-0.9-0.7-1.1-1.3c-0.3-0.5-0.4-1.1-0.4-1.8s0.1-1.2,0.4-1.8    c0.3-0.5,0.6-1,1.1-1.3s1.1-0.5,1.8-0.5c0.7,0,1.3,0.2,1.8,0.5s0.9,0.7,1.1,1.3c0.3,0.5,0.4,1.1,0.4,1.8s-0.1,1.2-0.4,1.8    c-0.3,0.5-0.6,1-1.1,1.3C480.4,46.2,479.8,46.3,479.1,46.3z M479.1,45.2c0.7,0,1.2-0.2,1.5-0.6c0.4-0.4,0.5-1,0.5-1.8    c0-0.8-0.2-1.3-0.5-1.8c-0.4-0.4-0.9-0.6-1.5-0.6c-0.7,0-1.2,0.2-1.5,0.6c-0.4,0.4-0.5,1-0.5,1.8c0,0.8,0.2,1.3,0.5,1.8    C477.9,45,478.4,45.2,479.1,45.2z" class="st1"></path><path d="M486.4,49.6c-0.6,0-1.2-0.1-1.6-0.2s-0.9-0.4-1.1-0.7c-0.3-0.3-0.4-0.7-0.4-1.1c0-0.4,0.1-0.7,0.3-0.9    c0.2-0.3,0.5-0.5,0.9-0.6c-0.2-0.1-0.4-0.2-0.5-0.4s-0.2-0.3-0.2-0.5c0-0.2,0.1-0.4,0.2-0.6c0.1-0.2,0.3-0.3,0.6-0.4    c-0.4-0.2-0.7-0.5-0.9-0.9s-0.3-0.8-0.3-1.3c0-0.5,0.1-0.9,0.3-1.3c0.2-0.4,0.5-0.7,1-0.9c0.4-0.2,0.9-0.4,1.5-0.4    c0.3,0,0.6,0,0.9,0.1s0.5,0.2,0.8,0.4c0.2-0.1,0.5-0.2,0.7-0.3s0.6-0.1,0.9-0.1c0,0,0,0,0.1,0c0,0,0,0,0.1,0l-0.2,0.8    c-0.1,0-0.1,0-0.2,0c0,0-0.1,0-0.2,0c0,0-0.2,0-0.3,0c-0.2,0-0.3,0-0.5,0.1c0.2,0.2,0.3,0.5,0.4,0.7c0.1,0.3,0.2,0.6,0.2,0.9    c0,0.5-0.1,1-0.3,1.4c-0.2,0.4-0.5,0.7-1,1c-0.4,0.2-0.9,0.4-1.5,0.4c-0.2,0-0.3,0-0.5,0s-0.3-0.1-0.4-0.1    c-0.2,0.1-0.3,0.2-0.3,0.4c0,0.1,0.1,0.2,0.2,0.3c0.1,0.1,0.3,0.1,0.6,0.2l1.8,0.3c0.7,0.1,1.3,0.3,1.7,0.6    c0.4,0.3,0.6,0.7,0.6,1.3c0,0.5-0.1,0.9-0.4,1.2c-0.3,0.3-0.7,0.5-1.2,0.7C487.7,49.6,487.1,49.6,486.4,49.6z M486.5,48.5    c0.6,0,1.1-0.1,1.5-0.2c0.3-0.2,0.5-0.4,0.5-0.7c0-0.2-0.1-0.4-0.3-0.6c-0.2-0.1-0.5-0.2-0.9-0.3l-1.9-0.3    c-0.3,0.1-0.5,0.3-0.7,0.4c-0.2,0.2-0.3,0.4-0.3,0.7c0,0.4,0.2,0.7,0.6,0.8C485.4,48.5,485.9,48.5,486.5,48.5z M486.1,43.7    c0.5,0,0.9-0.2,1.2-0.5c0.3-0.3,0.4-0.7,0.4-1.2c0-0.5-0.1-0.9-0.4-1.2c-0.3-0.3-0.7-0.5-1.2-0.5c-0.5,0-0.9,0.2-1.2,0.5    c-0.3,0.3-0.4,0.7-0.4,1.2c0,0.5,0.1,0.9,0.4,1.2C485.2,43.5,485.6,43.7,486.1,43.7z" class="st1"></path><path d="M490.5,46.2v-6.7h1l0.2,1.1c0.3-0.4,0.7-0.7,1-0.9c0.3-0.2,0.7-0.3,1-0.3c0.1,0,0.2,0,0.3,0l-0.1,1.4    c-0.1,0-0.1,0-0.2,0s-0.1,0-0.2,0c-0.4,0-0.7,0.1-1,0.2c-0.3,0.2-0.5,0.3-0.6,0.5v4.8H490.5z" class="st1"></path><path d="M496.4,46.3c-0.4,0-0.8-0.1-1.1-0.3s-0.6-0.4-0.7-0.7c-0.2-0.3-0.3-0.6-0.3-1c0-0.4,0.1-0.7,0.3-1    c0.2-0.3,0.4-0.5,0.7-0.7c0.3-0.2,0.6-0.3,0.9-0.4c0.3-0.1,0.7-0.2,1.1-0.2c0.4,0,0.7-0.1,1.1-0.1c0-0.6-0.1-1.1-0.4-1.3    c-0.3-0.2-0.6-0.3-1.1-0.3c-0.3,0-0.5,0-0.8,0.1c-0.3,0.1-0.6,0.2-1,0.5l-0.2-1c0.3-0.2,0.6-0.4,1-0.5c0.4-0.1,0.8-0.2,1.3-0.2    c0.6,0,1,0.1,1.4,0.3c0.3,0.2,0.6,0.5,0.8,1c0.2,0.5,0.2,1.1,0.2,1.9v1.4c0,0.3,0,0.6,0,0.8c0,0.2,0.1,0.4,0.2,0.5    c0.1,0.1,0.3,0.2,0.5,0.2h0.1l-0.2,1h-0.1c-0.4,0-0.7,0-0.9-0.1s-0.4-0.2-0.5-0.3s-0.2-0.3-0.3-0.5c-0.3,0.3-0.6,0.5-0.9,0.7    S496.8,46.3,496.4,46.3z M496.6,45.4c0.3,0,0.7-0.1,1-0.2s0.6-0.4,0.8-0.7v-1.6c-0.7,0-1.2,0.1-1.6,0.2s-0.7,0.3-0.9,0.5    c-0.2,0.2-0.3,0.5-0.3,0.8c0,0.4,0.1,0.6,0.3,0.8C496,45.3,496.3,45.4,496.6,45.4z" class="st1"></path><path d="M501.4,46.2v-6.7h1l0.2,1.3l-0.5-0.2c0.4-0.5,0.8-0.8,1.2-0.9c0.4-0.2,0.8-0.3,1.3-0.3c0.3,0,0.6,0.1,1,0.2    c0.3,0.1,0.6,0.3,0.8,0.6c0.2,0.3,0.4,0.6,0.6,1.1l-0.3-0.2c0.2-0.5,0.5-0.9,0.9-1.2s1-0.5,1.7-0.5c0.6,0,1,0.1,1.4,0.3    c0.4,0.2,0.7,0.5,0.9,1s0.3,1,0.3,1.6v4h-1.2v-4c0-0.6-0.1-1.1-0.4-1.4c-0.2-0.3-0.7-0.4-1.2-0.4c-0.4,0-0.7,0.1-1,0.2    c-0.2,0.1-0.4,0.3-0.5,0.5c-0.1,0.2-0.2,0.4-0.2,0.6s-0.1,0.4-0.1,0.6v3.9H506v-3.7c0-0.5-0.1-1-0.2-1.3c-0.1-0.3-0.3-0.5-0.6-0.6    c-0.2-0.1-0.5-0.2-0.8-0.2c-0.5,0-0.9,0.1-1.2,0.3s-0.6,0.5-0.7,1l0.2-0.7v5.2H501.4z" class="st1"></path><path d="M515.4,46.3c-0.6,0-1.1-0.1-1.5-0.2c-0.4-0.1-0.7-0.3-0.8-0.4l0.2-1.2c0.1,0.1,0.4,0.3,0.8,0.4    c0.4,0.2,0.8,0.2,1.3,0.2c0.4,0,0.8-0.1,1-0.2c0.2-0.1,0.3-0.4,0.3-0.6c0-0.2-0.1-0.4-0.2-0.6c-0.1-0.1-0.3-0.3-0.5-0.3    c-0.2-0.1-0.4-0.2-0.6-0.2c-0.3-0.1-0.6-0.2-1-0.3s-0.6-0.3-0.8-0.6c-0.2-0.3-0.3-0.6-0.3-1.1c0-0.3,0.1-0.7,0.2-1    s0.4-0.6,0.8-0.8c0.4-0.2,0.9-0.3,1.5-0.3c0.5,0,0.8,0,1.1,0.1c0.3,0.1,0.5,0.2,0.7,0.3l-0.2,1.1c-0.2-0.2-0.4-0.3-0.7-0.4    c-0.3-0.1-0.6-0.2-1-0.2c-0.4,0-0.7,0.1-0.9,0.2s-0.4,0.4-0.4,0.7s0.1,0.5,0.4,0.7c0.3,0.1,0.7,0.3,1.2,0.4c0.2,0,0.4,0.1,0.6,0.2    c0.2,0.1,0.4,0.2,0.6,0.4c0.2,0.1,0.4,0.3,0.5,0.6c0.1,0.2,0.2,0.5,0.2,0.9c0,0.3-0.1,0.6-0.2,0.9c-0.1,0.3-0.4,0.6-0.8,0.8    C516.6,46.2,516.1,46.3,515.4,46.3z" class="st1"></path><path d="M519.9,47.7h-0.8l0.5-1.5h-0.5v-1.5h1.5v1.3L519.9,47.7z" class="st1"></path><path d="M525.5,46.2v-9.6h1.3v9.6H525.5z" class="st1"></path><path d="M528.6,46.2v-6.7h1l0.2,1.3l-0.5-0.2c0.5-0.5,0.9-0.8,1.3-1c0.4-0.2,0.9-0.2,1.3-0.2c1,0,1.7,0.3,2.1,0.9    c0.4,0.6,0.6,1.3,0.6,2.3v3.7h-1.2v-3.7c0-0.7-0.1-1.2-0.4-1.6c-0.3-0.3-0.7-0.5-1.4-0.5c-0.5,0-0.9,0.1-1.2,0.3    c-0.4,0.2-0.6,0.5-0.7,1l0.2-0.8v5.3H528.6z" class="st1"></path><path d="M539.4,46.3c-0.8,0-1.4-0.2-1.9-0.5s-0.9-0.7-1.2-1.3s-0.4-1.1-0.4-1.8c0-0.7,0.1-1.3,0.4-1.8    c0.3-0.5,0.6-1,1.2-1.3c0.5-0.3,1.2-0.5,2-0.5c0.4,0,0.7,0,1,0.1c0.3,0.1,0.6,0.2,0.8,0.3l-0.2,1.1c-0.3-0.1-0.5-0.2-0.8-0.3    c-0.3-0.1-0.6-0.1-0.9-0.1c-0.7,0-1.3,0.2-1.7,0.6c-0.4,0.4-0.6,1-0.6,1.8c0,0.7,0.2,1.3,0.6,1.8c0.4,0.4,0.9,0.7,1.7,0.7    c0.3,0,0.6,0,0.9-0.1c0.3-0.1,0.6-0.2,0.8-0.3l0.2,1c-0.2,0.1-0.5,0.2-0.8,0.4C540.2,46.3,539.8,46.3,539.4,46.3z" class="st1"></path><path d="M542.4,46.2v-1.5h1.5v1.5H542.4z" class="st1"></path></g><g class="st0"><path d="M546.8,41.7c-0.5,0-1-0.1-1.4-0.3c-0.4-0.2-0.7-0.5-0.9-1c-0.2-0.4-0.3-0.9-0.3-1.5c0-0.6,0.1-1,0.3-1.5    c0.2-0.4,0.5-0.7,0.9-1s0.8-0.3,1.4-0.3c0.5,0,1,0.1,1.3,0.3c0.4,0.2,0.7,0.5,0.9,1c0.2,0.4,0.3,0.9,0.3,1.5c0,0.6-0.1,1-0.3,1.5    c-0.2,0.4-0.5,0.7-0.9,1C547.7,41.6,547.3,41.7,546.8,41.7z M546.8,41.3c0.5,0,0.9-0.1,1.2-0.3c0.3-0.2,0.6-0.5,0.7-0.9    c0.2-0.4,0.2-0.8,0.2-1.2c0-0.4-0.1-0.9-0.2-1.2c-0.2-0.4-0.4-0.6-0.7-0.9c-0.3-0.2-0.7-0.3-1.2-0.3c-0.5,0-0.9,0.1-1.2,0.3    c-0.3,0.2-0.6,0.5-0.7,0.9c-0.2,0.4-0.2,0.8-0.2,1.2c0,0.4,0.1,0.9,0.2,1.2c0.2,0.4,0.4,0.6,0.7,0.9    C545.9,41.2,546.3,41.3,546.8,41.3z M545.8,40.2v-2.7h1c0.3,0,0.5,0.1,0.7,0.2c0.2,0.1,0.2,0.3,0.2,0.6c0,0.2,0,0.3-0.1,0.4    s-0.2,0.2-0.3,0.3l0.6,1.1h-0.6l-0.5-1h-0.5v1H545.8z M546.3,38.8h0.4c0.1,0,0.3,0,0.3-0.1c0.1-0.1,0.1-0.2,0.1-0.3s0-0.2-0.1-0.3    c-0.1-0.1-0.2-0.1-0.3-0.1h-0.4V38.8z" class="st1"></path></g></g><g id="Layer_11_00000081616227092514426440000003074131214249801369_"><path d="M263,70.2c-0.6,0-1-0.4-1-1V1c0-0.6,0.4-1,1-1s1,0.4,1,1v68.2C264,69.7,263.6,70.2,263,70.2z" class="st2"></path></g><g id="Layer_1_copy_2_00000163770055569814828430000005457386250491759520_"><g><path d="M243,19.9c-1.5-1.6-3.5-2.7-5.9-3.4c-2.4-0.6-5.8-1-10.3-1c-2.4,0-5.8,0.1-10.1,0.2l-5.4,0.2v1.3h0.8    c2.2,0,3.6,0.2,4.3,0.5c0.7,0.3,1.1,1,1.3,1.9c0.2,0.9,0.3,2.9,0.3,6.1V45c0,3.3-0.1,5.4-0.3,6.3c-0.2,0.9-0.6,1.6-1.4,2    c-0.7,0.4-2,0.6-3.9,0.6h-1.2v1.3h19.7V54h-1.4c-1.9,0-3.2-0.2-3.9-0.7c-0.7-0.5-1.1-1.2-1.3-2.1c-0.2-1-0.2-3-0.2-6.1V39l0,0    v-7.1l0,0V17.1c0.8-0.1,1.9-0.1,3.3-0.1c3.9,0,6.7,0.8,8.4,2.3c1.7,1.5,2.6,3.9,2.6,7.2c0,2.1-0.5,3.9-1.5,5.4    c-1,1.5-2.3,2.4-3.8,2.9c-1.3,0.4-3,0.6-5,0.7v1.4h0.7c4.9,0,8.3-0.4,10.3-1.3s3.4-2.1,4.5-3.7c1-1.6,1.6-3.5,1.6-5.7    C245.3,23.6,244.6,21.6,243,19.9z" class="st1"></path></g><g><path d="M211.1,19.9c-1.5-1.6-3.5-2.7-5.9-3.4c-2.4-0.6-5.8-1-10.3-1c-2.4,0-5.8,0.1-10.1,0.2l-5.4,0.2v1.3h0.8    c2.2,0,3.6,0.2,4.3,0.5s1.1,1,1.3,1.9s0.3,2.9,0.3,6.1V45c0,3.3-0.1,5.4-0.3,6.3c0,0.1-0.1,0.2-0.1,0.3l3.1,3.7h10.3V54h-1.4    c-1.9,0-3.2-0.2-3.9-0.7c-0.7-0.5-1.1-1.2-1.3-2.1c-0.2-1-0.2-3-0.2-6.1V39l0,0v-7.1l0,0V17.1c0.8-0.1,1.9-0.1,3.3-0.1    c3.9,0,6.7,0.8,8.4,2.3c1.7,1.5,2.6,3.9,2.6,7.2c0,2.1-0.5,3.9-1.5,5.4c-1,1.5-2.3,2.4-3.8,2.9c-1.3,0.4-3,0.6-5,0.7v1.4h0.7    c4.9,0,8.3-0.4,10.3-1.3s3.4-2.1,4.5-3.7c1-1.6,1.6-3.5,1.6-5.7C213.4,23.6,212.6,21.6,211.1,19.9z" class="st1"></path></g><g><path d="M193.1,64.6c-1.8-1.2-3.3-2.3-10.4-9.7c-4.4-4.6-14.6-18.6-16.4-19.3c4-0.4,7-1.6,9-3.4    c2.1-1.8,3.1-4,3.1-6.6c0-2.2-0.8-4.1-2.4-5.7c-1.6-1.6-3.6-2.7-6.2-3.4c-2.6-0.7-5.9-1-9.9-1c-2.4,0-5.6,0.1-9.7,0.3l-6.1,0.3    v1.3h0.7c2.2,0,3.6,0.2,4.2,0.5c0.6,0.3,1.1,1,1.3,1.9s0.3,2.9,0.3,6.1v8.9h-22v-1.1v-7.8c0-3.3,0.1-5.3,0.3-6.2s0.7-1.5,1.3-1.8    c0.7-0.3,2.1-0.5,4.2-0.5h0.8V16h-19.6v1.3h0.8c2.2,0,3.6,0.2,4.3,0.5s1.1,1,1.3,1.9s0.3,2.9,0.3,6.1v19.3c0,1.9,0,3.5-0.1,4.6    l2.6,5.7h10.4V54h-1.1c-2,0-3.3-0.2-4-0.7s-1.1-1.2-1.3-2.1c-0.2-1-0.3-3-0.3-6.1v-8.5h22v8.5c0,3.3-0.1,5.4-0.3,6.3    s-0.6,1.6-1.3,2s-2,0.6-3.8,0.6h-1.4v1.3h20.6V54h-2.1c-1.9,0-3.3-0.2-3.9-0.7c-0.7-0.5-1.1-1.2-1.3-2.1c-0.2-1-0.2-3-0.2-6.1V38    l0,0v-7.1l0,0V17c1-0.1,1.9-0.1,2.7-0.1c5,0,8.3,0.8,9.8,2.5s2.2,3.9,2.2,6.7c0,1.6-0.2,2.9-0.7,4c-0.4,1.1-1,2-1.8,2.6    c-0.8,0.7-1.8,1.2-3,1.5s-2.7,0.6-4.4,0.6c-0.3,0-0.4,0-0.6,0v2.1c0.5,0.4,9.3,10.8,10.7,12.4c6.7,8.2,12.6,16.4,22.2,17.9    c4.9,0.8,7-0.7,7-0.7C198.4,66.5,195.5,66.3,193.1,64.6z" class="st1"></path><path d="M110.2,53.5c-0.7,0.3-2.1,0.4-4.2,0.4v1.3h13.8l-18.4-39.8h-1.2L86,47l-0.2-0.4L71.5,15.5h-1.2L57.8,42.7    c-0.9,2-1.4,3.1-1.5,3.4c-1.3,3.1-2.4,5.1-3.3,6c-0.9,1-2.3,1.6-4.2,1.8v1.3h12.9V54c-1.4,0-2.6-0.3-3.4-0.9    c-0.9-0.6-1.3-1.5-1.3-2.7c0-1.1,0.8-3.5,2.5-7.1l1.1-2.5l0.6-1.4l1.3-2.8h12.4l1.3,2.8l0.6,1.4l3.3,7.3c1,2.1,1.5,3.4,1.5,3.8    c0,0.8-0.4,1.4-1.1,1.7c-0.9,0.2-2.3,0.4-4.4,0.4v1.3h16.8V54c-1.5-0.2-2.6-0.5-3.3-1.1c-0.7-0.5-1.3-1.3-1.8-2.2l-0.9-1.8    l5.5-12.4h12.3l5.2,11.5c1,2.1,1.5,3.4,1.5,3.8C111.3,52.7,110.9,53.3,110.2,53.5z M63.1,34.7l5.4-12l5.4,12H63.1z M93.1,34.7    l5.3-12l5.4,12H93.1z" class="st1"></path></g><path d="M236,52.3c0-1.8,1.5-3.4,3.3-3.4s3.3,1.5,3.3,3.4s-1.5,3.4-3.3,3.4C237.5,55.6,236,54.1,236,52.3z M242,52.3   c0-1.5-1.2-2.8-2.7-2.8s-2.7,1.3-2.7,2.8s1.2,2.8,2.7,2.8S242,53.8,242,52.3z M238,50.3h1.4c0.8,0,1.4,0.3,1.4,0.9   c0,0.5-0.3,0.8-0.8,1l1.2,1.5l-0.7,0.2l-1.1-1.6h-0.7v1.5H238L238,50.3L238,50.3z M238.7,52.1h0.4c0.8,0,1-0.5,1-0.8   c0-0.4-0.4-0.6-0.8-0.6h-0.6V52.1L238.7,52.1z" class="st1"></path></g><g><path d="M2.7,33.6c0.4-4,1.9-7.6,4.4-10.5c1.6,0.9,3.5,1.5,5.5,2c-0.5,1.9-0.9,4.1-1.2,6.4c0.5-0.8,1.1-1.6,2-2.3   c0.2-1.3,0.5-2.6,0.9-3.8c2.3,0.6,4.8,0.9,7.4,0.9v1.5c0.2-0.1,0.5-0.1,0.7-0.1c0.4,0,0.7,0.1,1.1,0.2v-1.6h-0.2   c2.7,0,5.2-0.3,7.6-0.9c0.3,1.3,0.6,2.7,0.9,4.1c0.7,0.6,1.2,1.3,1.6,1.9c-0.2-2.2-0.6-4.3-1.2-6.2c2-0.5,3.9-1.3,5.5-2   c2.6,3.1,4.2,6.9,4.5,11.2c1.1,1.7,1.7,3.5,2,4.8c0.2-1.1,0.3-2.3,0.3-3.5c0-12.2-9.8-21.9-22-21.9c-12,0-22,9.8-22,22   c0,1.3,0.1,2.5,0.3,3.8C0.9,38.3,1.3,36,2.7,33.6z M36.8,21.9c-1.5,0.7-3.1,1.3-4.9,1.8c-1.1-3-2.5-5.5-4.1-7.2   C31.3,17.4,34.4,19.3,36.8,21.9z M23.3,15.6c0.3,0,0.6,0,1,0.1c2.4,1.1,4.5,4,6,8.3c-2.2,0.4-4.6,0.7-7,0.7V15.6z M20.7,15.8   c0.3,0,0.6,0,1-0.1v9.1c-2.5,0-4.9-0.3-7-0.7C16,19.7,18.3,16.8,20.7,15.8z M17.1,16.4c-1.7,1.7-3.1,4.2-4.1,7.2   c-1.8-0.4-3.5-1.1-4.9-1.8C10.6,19.3,13.7,17.4,17.1,16.4z" class="st1"></path><path d="M12.4,45.1c0,0.1,0.1,0.3,0.1,0.4c0.1,0,0.1-0.1,0.2-0.1C12.6,45.3,12.5,45.2,12.4,45.1z" class="st1"></path><path d="M39.7,48.4c0.1,0.1,0.2,0.3,0.3,0.5c0.6-0.7,1.1-1.5,1.5-2.3C41,47.1,40.4,47.8,39.7,48.4z" class="st1"></path></g><path d="M15.7,29.5c0,9.6,1.6,19.1,5.2,27.9C14.2,51.6,9.3,43.7,7.4,34.9c-0.1-0.2,0.2-0.2,0.2-0.1  c0.7,1.7,1.4,3.1,1.9,4.1c1.2,1.9,3.9,1.6,4.7-0.6c0.7-2.2,1-6.2,1.1-8.5C15.4,29.1,15.7,29.1,15.7,29.5L15.7,29.5z M29.1,29.5  c0,9.6-1.6,19.1-5.2,27.9c6.7-5.9,11.6-13.7,13.5-22.6c0.1-0.2-0.2-0.2-0.2-0.1c-0.7,1.7-1.4,3.1-1.9,4.1c-1.2,1.9-3.9,1.6-4.7-0.6  c-0.7-2.2-1-6.2-1.1-8.5C29.4,29.1,29.1,29.1,29.1,29.5z" class="st3"></path><path d="M6.2,35.7c1.9,8.3,6.4,15.8,12.5,21.5C9.5,55.7,2.3,48.8,0,39.9c-0.1-0.2,0.2-0.3,0.3-0.1  c0.4,1.1,1.2,2.6,2,3.8c1,1.3,1.7,1.6,2.6,1.6c1.1-0.1,2-1,1.9-3.3c-0.1-2.2-0.7-5-0.9-6.1C5.9,35.4,6.2,35.5,6.2,35.7L6.2,35.7z   M38.6,35.7c-1.9,8.3-6.4,15.8-12.5,21.5c9.2-1.5,16.4-8.4,18.7-17.3c0.1-0.2-0.2-0.3-0.3-0.1c-0.4,1.1-1.2,2.6-2,3.8  c-1,1.3-1.7,1.6-2.6,1.6c-1.1-0.1-2-1-1.9-3.3c0.1-2.2,0.7-5,0.9-6.1C38.9,35.4,38.6,35.5,38.6,35.7L38.6,35.7z" class="st4"></path><path d="M19.5,36.7c-1.4-2.2-1.9-6-2.1-7.6c0-0.2-0.3-0.2-0.3,0c0,9.7,1.6,19.4,5.3,28.4c3.7-9,5.4-18.7,5.3-28.4  c0-0.2-0.3-0.2-0.3,0c-0.2,1.6-0.7,5.2-2,7.5C24,38.9,20.9,39,19.5,36.7L19.5,36.7z M22.4,30.3c1.2,0,2.1,1,2.1,2.1s-1,2.1-2.1,2.1  s-2.1-1-2.1-2.1S21.2,30.3,22.4,30.3z" class="st5"></path><circle r="1.8" cy="35.5" cx="11.8" class="st3"></circle><circle r="1.8" cy="35.5" cx="33.3" class="st3"></circle><circle r="1.6" cy="41.9" cx="40.6" class="st4"></circle><circle r="1.6" cy="41.9" cx="4.3" class="st4"></circle></svg>